<?xml version="1.0" encoding="iso-8859-1"?>
<!-- Uploaded to: SVG Repo, www.svgrepo.com, Generator: SVG Repo Mixer Tools -->
<!DOCTYPE svg PUBLIC "-//W3C//DTD SVG 1.1//EN" "http://www.w3.org/Graphics/SVG/1.1/DTD/svg11.dtd">
<svg fill="#000000" height="800px" width="800px" version="1.1" id="Capa_1" xmlns="http://www.w3.org/2000/svg" xmlns:xlink="http://www.w3.org/1999/xlink" 
	 viewBox="0 0 349.363 349.363" xml:space="preserve">
<g>
	<g>
		<path d="M294.61,77.279h-3.82c-10.23,0-18.873-14.261-18.873-31.141C271.917,29.26,280.56,15,290.79,15h3.82
			c4.143,0,7.5-3.358,7.5-7.5c0-4.143-3.357-7.5-7.5-7.5H81.126C62.132,0,47.253,20.267,47.253,46.139c0,0.166,0,257.084,0,257.084
			c0,25.873,14.879,46.141,33.873,46.141H294.61c4.143,0,7.5-3.357,7.5-7.5V84.779C302.11,80.637,298.753,77.279,294.61,77.279z
			 M81.126,15h184.492c-5.426,8.149-8.701,19.021-8.701,31.139c0,12.115,3.27,22.991,8.691,31.141H81.126
			c-10.23,0-18.873-14.261-18.873-31.141C62.253,29.26,70.896,15,81.126,15z M287.11,334.363H81.126
			c-10.23,0-18.873-14.261-18.873-31.141V84.668c5.361,4.822,11.834,7.611,18.873,7.611H287.11V334.363z"/>
		<g>
			<path d="M239.409,185.832H109.954c-4.141,0-7.5-3.357-7.5-7.5v-46.805c0-4.143,3.359-7.5,7.5-7.5h129.455
				c4.143,0,7.5,3.357,7.5,7.5v46.805C246.909,182.475,243.552,185.832,239.409,185.832z M117.454,170.832h114.455v-31.805H117.454
				V170.832z"/>
		</g>
	</g>
</g>
</svg>